HIERARCHY
ROOT hip
{
  OFFSET 0 0 0
  CHANNELS 6 Xposition Yposition Zposition Zrotation Yrotation Xrotation
  JOINT abdomen
  {
    OFFSET 0 20.6881 -0.73152
    CHANNELS 3 Zrotation Xrotation Yrotation
    JOINT chest
    {
      OFFSET 0 11.7043 -0.48768
      CHANNELS 3 Zrotation Xrotation Yrotation
      JOINT neck
      {
        OFFSET 0 22.1894 -2.19456
        CHANNELS 3 Zrotation Xrotation Yrotation
        JOINT head
        {
          OFFSET -0.24384 7.07133 1.2192
          CHANNELS 3 Zrotation Xrotation Yrotation
          JOINT leftEye
          {
            OFFSET 4.14528 8.04674 8.04672
            CHANNELS 3 Zrotation Xrotation Yrotation
            End Site
            {
              OFFSET 1 0 0
            }
          }
          JOINT rightEye
          {
            OFFSET -3.6576 8.04674 8.04672
            CHANNELS 3 Zrotation Xrotation Yrotation
            End Site
            {
              OFFSET 1 0 0
            }
          }
        }
      }
      JOINT rCollar
      {
        OFFSET -2.68224 19.2634 -4.8768
        CHANNELS 3 Zrotation Xrotation Yrotation
        JOINT rShldr
        {
          OFFSET -8.77824 -1.95073 1.46304
          CHANNELS 3 Zrotation Xrotation Yrotation
          JOINT rForeArm
          {
            OFFSET -28.1742 -1.7115 0.48768
            CHANNELS 3 Zrotation Xrotation Yrotation
            JOINT rHand
            {
              OFFSET -22.5879 0.773209 7.07136
              CHANNELS 3 Zrotation Xrotation Yrotation
              JOINT rThumb1
              {
                OFFSET -1.2192 -0.487915 3.41376
                CHANNELS 3 Zrotation Xrotation Yrotation
                JOINT rThumb2
                {
                  OFFSET -3.37035 -0.52449 3.41376
                  CHANNELS 3 Zrotation Xrotation Yrotation
                  End Site
                  {
                    OFFSET -1.78271 -1.18214 1.43049
                  }
                }
              }
              JOINT rIndex1
              {
                OFFSET -7.75947 0.938293 5.60832
                CHANNELS 3 Zrotation Xrotation Yrotation
                JOINT rIndex2
                {
                  OFFSET -2.54057 -0.884171 1.56538
                  CHANNELS 3 Zrotation Xrotation Yrotation
                  End Site
                  {
                    OFFSET -1.62519 -0.234802 1.16502
                  }
                }
              }
              JOINT rMid1
              {
                OFFSET -8.24714 1.18213 3.41376
                CHANNELS 3 Zrotation Xrotation Yrotation
                JOINT rMid2
                {
                  OFFSET -3.10165 -0.590103 1.0647
                  CHANNELS 3 Zrotation Xrotation Yrotation
                  End Site
                  {
                    OFFSET -2.48547 -0.328903 0.83742
                  }
                }
              }
              JOINT rRing1
              {
                OFFSET -8.82822 0.546677 1.51678
                CHANNELS 3 Zrotation Xrotation Yrotation
                JOINT rRing2
                {
                  OFFSET -2.60934 -0.819778 -0.0198488
                  CHANNELS 3 Zrotation Xrotation Yrotation
                  End Site
                  {
                    OFFSET -2.33842 -0.294052 0.168128
                  }
                }
              }
              JOINT rPinky1
              {
                OFFSET -8.27202 -0.0477905 -0.4584
                CHANNELS 3 Zrotation Xrotation Yrotation
                JOINT rPinky2
                {
                  OFFSET -1.82734 -0.647385 -0.700984
                  CHANNELS 3 Zrotation Xrotation Yrotation
                  End Site
                  {
                    OFFSET -1.69225 -0.51767 -0.607171
                  }
                }
              }
            }
          }
        }
      }
      JOINT lCollar
      {
        OFFSET 2.68224 19.2634 -4.8768
        CHANNELS 3 Zrotation Xrotation Yrotation
        JOINT lShldr
        {
          OFFSET 8.77824 -1.95073 1.46304
          CHANNELS 3 Zrotation Xrotation Yrotation
          JOINT lForeArm
          {
            OFFSET 28.1742 -1.7115 0.48768
            CHANNELS 3 Zrotation Xrotation Yrotation
            JOINT lHand
            {
              OFFSET 22.5879 0.773209 7.07136
              CHANNELS 3 Zrotation Xrotation Yrotation
              JOINT lThumb1
              {
                OFFSET 1.2192 -0.487915 3.41376
                CHANNELS 3 Zrotation Xrotation Yrotation
                JOINT lThumb2
                {
                  OFFSET 3.37035 -0.52449 3.41376
                  CHANNELS 3 Zrotation Xrotation Yrotation
                  End Site
                  {
                    OFFSET 1.78271 -1.18214 1.43049
                  }
                }
              }
              JOINT lIndex1
              {
                OFFSET 7.75947 0.938293 5.60832
                CHANNELS 3 Zrotation Xrotation Yrotation
                JOINT lIndex2
                {
                  OFFSET 2.54057 -0.884171 1.56538
                  CHANNELS 3 Zrotation Xrotation Yrotation
                  End Site
                  {
                    OFFSET 1.62519 -0.234802 1.16502
                  }
                }
              }
              JOINT lMid1
              {
                OFFSET 8.24714 1.18213 3.41376
                CHANNELS 3 Zrotation Xrotation Yrotation
                JOINT lMid2
                {
                  OFFSET 3.10165 -0.590103 1.0647
                  CHANNELS 3 Zrotation Xrotation Yrotation
                  End Site
                  {
                    OFFSET 2.48547 -0.328903 0.83742
                  }
                }
              }
              JOINT lRing1
              {
                OFFSET 8.82822 0.546677 1.51678
                CHANNELS 3 Zrotation Xrotation Yrotation
                JOINT lRing2
                {
                  OFFSET 2.60934 -0.819778 -0.0198488
                  CHANNELS 3 Zrotation Xrotation Yrotation
                  End Site
                  {
                    OFFSET 2.33842 -0.294052 0.168128
                  }
                }
              }
              JOINT lPinky1
              {
                OFFSET 8.27202 -0.0477905 -0.4584
                CHANNELS 3 Zrotation Xrotation Yrotation
                JOINT lPinky2
                {
                  OFFSET 1.82734 -0.647385 -0.700984
                  CHANNELS 3 Zrotation Xrotation Yrotation
                  End Site
                  {
                    OFFSET 1.69225 -0.51767 -0.607171
                  }
                }
              }
            }
          }
        }
      }
    }
  }
  JOINT rButtock
  {
    OFFSET -8.77824 4.35084 1.2192
    CHANNELS 3 Zrotation Xrotation Yrotation
    JOINT rThigh
    {
      OFFSET 0 -1.70687 -2.19456
      CHANNELS 3 Zrotation Xrotation Yrotation
      JOINT rShin
      {
        OFFSET 0 -36.8199 0.73152
        CHANNELS 3 Zrotation Xrotation Yrotation
        JOINT rFoot
        {
          OFFSET 0.73152 -45.1104 -5.12064
          CHANNELS 3 Zrotation Xrotation Yrotation
          End Site
          {
            OFFSET -1.1221 -3.69964 12.103
          }
        }
      }
    }
  }
  JOINT lButtock
  {
    OFFSET 8.77824 4.35084 1.2192
    CHANNELS 3 Zrotation Xrotation Yrotation
    JOINT lThigh
    {
      OFFSET 0 -1.70687 -2.19456
      CHANNELS 3 Zrotation Xrotation Yrotation
      JOINT lShin
      {
        OFFSET 0 -36.8199 0.73152
        CHANNELS 3 Zrotation Xrotation Yrotation
        JOINT lFoot
        {
          OFFSET -0.73152 -45.1104 -5.12064
          CHANNELS 3 Zrotation Xrotation Yrotation
          End Site
          {
            OFFSET 1.1221 -3.69964 12.103
          }
        }
      }
    }
  }
}
MOTION
Frames:	4
Frame Time:	0.03333
-16.505628265440464 57.72418975830078 -25.872529670596123 -6.324097338837371 3.9450237763851006 2.6690394252682297 -2.8119323187901855 15.205305658579856 4.127209680985082 3.185915271369414 -10.094366456439463 1.2500871552702386 -4.9517684737224155 15.546244796284798 -2.673838913820633 8.430748379356858 -25.0183921183935 -4.365210610821938 0.35663736701686377 -0.43190191620430524 -0.15819286410832817 -0.14568019767270282 0.17332834986566487 -0.13028540485074366 -0.1317402618243828 0.05734410715688498 -0.24329379283508717 48.08220949257196 31.1116209524348 15.625283745360186 -24.731585644955494 -30.20203783047503 65.77855344334716 -5.25035104706317 -11.560323981583776 -4.939788321918213 -0.00820647228777032 -0.299933803538079 0.44611209809209035 0.05380140009219044 0.05555996036005716 -0.2882558609242233 -0.1310304557592304 0.6265718858227626 -0.23548237762169333 7.47785502787004 5.856872699133948 0.35270515240649336 0.0183625633771826 0.07301114705029263 0.18607217551601285 2.827354459049251 1.4314413776170651 -0.46694924434165386 -0.35263348878106116 -0.29211417075334 0.14237155798921344 10.598603464368363 0.0891816732711507 -0.3003102643552231 0.5145809025400601 0.04960522268278286 -0.6654683190421042 2.2996326994329097 -0.9238384738095251 -0.1523211959387915 -0.4139240845764648 0.23316931805101263 0.2828031288107317 -57.25274590621666 31.77483915103221 -25.70900620575183 23.697763089540487 -28.131073247708393 -62.55994291019455 4.6427028406661615 -13.121898178692744 3.4578690715704035 0.3201638366838783 0.019530599096427504 -0.09575663748178713 0.07707073401651318 -0.5282523265766339 0.2358337855184052 -0.23771592952156684 0.04794282534193184 0.00818662205049497 -8.358916987403127 5.805907535094605 -0.10039967201351485 0.26382619525379175 0.04430074035883493 -0.2474143178953089 -2.7541030280783914 0.5621200863804066 -0.40886142029760436 0.31414281148710055 -0.3609868634968396 0.15582959197507731 -10.198126421442065 1.2928713535094927 -0.11301849986596631 -0.03043761745825112 0.16730241547042113 0.2691195918605516 -2.1301838169745326 -0.41476579866996305 0.2218402753737829 -0.3845885288129658 0.2007257060500405 -0.41813174790945706 -32.35357815488032 -35.686416771712224 -28.225053235593183 -5.813185101655254 62.8198862496269 6.286331088482254 -4.865367861382223 -10.374370915237783 -10.955812112676274 0.13668749323822735 0.2564029002038986 0.3625540183853873 37.344930136163896 -33.80929637268513 30.76678177671378 4.956054844313422 62.76864617047346 -6.860338051896011 4.651761379052891 -9.860826920791094 14.12294265628086
-16.856304183602333 57.732027769088745 -26.666327565908432 -6.31576792314454 3.9656701575855795 2.6889519880197557 -2.7711695363801376 15.164949485868835 4.160249440434549 3.102615138025585 -10.073086148306643 1.2496198209206215 -4.912063303416662 15.524656275865679 -2.710888421199721 8.452663041308845 -25.020570948738733 -4.402979849384816 0.3320772874219673 -0.39785870591622785 -0.12720200132730602 -0.12454636508106688 0.14349141552840464 -0.08154923035835236 -0.15928929623310034 0.06164072303164613 -0.24359346738492146 48.01560831797517 31.082497025813865 15.669348710790523 -24.712112775631788 -30.2030930947018 65.74996910167067 -5.211183327267731 -11.477002503898792 -4.929805573559416 -0.0028524043912736842 -0.31002196626176143 0.4757711273458129 0.05778105250078068 0.022788285835512855 -0.31521333691779424 -0.1438421830948818 0.6356961647802534 -0.2058738277348054 7.520188540345779 5.861985949501348 0.35161701789434574 0.0008425411867180963 0.0908167565254283 0.13995196347573644 2.780294669111275 1.4053867672544051 -0.46726716830317677 -0.3379618155570506 -0.28883898832461313 0.1299713495510553 10.579499425259836 0.09798888204076481 -0.28736193323617143 0.49334808556631177 0.06438543188157311 -0.5983283065528193 2.28033421337645 -0.9098099055845537 -0.22264738495418154 -0.3570550757732924 0.193047186040771 0.31064714201422916 -57.21667226211524 31.820177946742753 -25.64299925761283 23.70101938222729 -28.134648851738895 -62.5705911751106 4.637249788387552 -13.148628124009589 3.4451395199482038 0.2855426749981415 0.05184294339928845 -0.08614181220367191 0.09571066710702177 -0.4996068333627178 0.20959652095630035 -0.21654179614578517 0.030555298149195 -0.017400653962547953 -8.386122484640934 5.795891062676781 -0.15678773944958316 0.26669690241760696 0.05529126178532592 -0.24538788614593077 -2.784125978348829 0.5708504555218581 -0.434284771770567 0.28320835112758386 -0.37255923166325106 0.17990536846913757 -10.242625957658346 1.2851359508310416 -0.09509752422688089 -0.002274879880437372 0.14555279863642623 0.2527435729952114 -2.0990176637917646 -0.4297140945553591 0.2552566557229529 -0.3652504490036614 0.1944854744695876 -0.41762108454729285 -32.40743761158045 -35.69489303647221 -28.24020259517227 -5.8106280495847304 62.8058092297475 6.232904921907592 -4.887777285162212 -10.38593101040803 -10.919676996872322 0.1902627500358669 0.2643203701124128 0.3673255458508759 37.371151232387575 -33.78978593732099 30.81079210063076 4.918283471316428 62.74733598026302 -6.87579348932728 4.65329902538979 -9.924400614038282 14.112746891397324
-17.168594151735306 57.72562026977539 -27.484680712223053 -6.3129402248281545 3.9443117291641268 2.6851450113311195 -2.761472375306012 15.176374684802974 4.13251929929112 3.1221298422579573 -10.07826855433939 1.2609178075814689 -4.906190194504097 15.557407032935892 -2.7037122402595646 8.475089967448582 -25.039070516105713 -4.394385336974825 0.32924478662882184 -0.41452255322206066 -0.11259969721205346 -0.11587234500026804 0.14745698067183172 -0.0911800105314819 -0.1653876946665697 0.041540223356239074 -0.2528203059016682 48.03889926304491 31.13197491616144 15.686709344113403 -24.714872172056474 -30.19352058458003 65.793853067088 -5.222973087548819 -11.488663344359296 -4.939054930356083 -0.021562800488024475 -0.30217690703062 0.4669072493504288 0.08537352264375125 0.04055739648727126 -0.3027439728142897 -0.16793183341069365 0.6483448213494707 -0.23068150168711482 7.519093148757638 5.889858243956878 0.3706197781040848 0.017203245487278716 0.0672981206964001 0.12377327304438607 2.7971103814044347 1.403736849683024 -0.48101687271094135 -0.3391837790882482 -0.30185284657101463 0.1237949375506597 10.59834647850084 0.1352542874306486 -0.28016291385097797 0.5161301815428894 0.03222687355674323 -0.585697685951879 2.2582782518860096 -0.9106416945594142 -0.1961927816382528 -0.34498954660446485 0.2001751821307669 0.31817550458346416 -57.20676507272413 31.834265211905905 -25.667731372597444 23.71847393065126 -28.137165776448043 -62.60922272505619 4.653803178727902 -13.137650302466087 3.4430633558839316 0.2676705245394511 0.03985830928344327 -0.09753635532782502 0.06714382779026656 -0.5245750167605225 0.19101573837122113 -0.18850623082062323 0.04281570115277945 -0.008422690463683536 -8.382421375884434 5.798235525109388 -0.1666027746477444 0.24998972609922684 0.03737946421293771 -0.26916276079054025 -2.787906488054431 0.5637409756478152 -0.4460777337028287 0.2701356892212968 -0.38470779031917657 0.20261361302531433 -10.267493822652716 1.2762833853364703 -0.07888121439424257 -0.0009239965286557875 0.10312545110087885 0.25960951393666093 -2.098751926744369 -0.44528340404669736 0.24347564662173876 -0.3554686576168511 0.20919151208285974 -0.408537359837999 -32.447073199334035 -35.72744230296191 -28.243752585993384 -5.843486382134369 62.80877353184729 6.222164022550923 -4.88830278284148 -10.39196633631338 -10.927340469121075 0.20500971542330623 0.2663861288103714 0.35963710072296873 37.352375042359206 -33.81104490111265 30.826026837574474 4.946204857756617 62.75919318866216 -6.880976749133674 4.660223556547714 -9.913145316059746 14.132702142831162
-17.40682478994131 57.70590901374817 -28.30035910010338 -6.313400408823484 3.9065377948461943 2.665941934479629 -2.7780910793302995 15.217132131127734 4.077315149098139 3.2068357139103396 -10.105572235546516 1.274441582138094 -4.931441403865635 15.613114055806514 -2.6684656893779484 8.484872505887333 -25.062580027228897 -4.354470565238916 0.348708477885831 -0.4632855415430296 -0.12248842374805675 -0.1243938597635052 0.1771085394061496 -0.13527507148284953 -0.1541164951538735 0.0180185459585961 -0.26129977231282747 48.12258274075591 31.211649072829637 15.674710409288982 -24.73725811706119 -30.187537338867095 65.8742102426732 -5.2652229302072255 -11.559813424943318 -4.957887469445101 -0.0478352298521843 -0.28486648627031025 0.431213747965 0.11661843644538615 0.08343780434428733 -0.26964914496463915 -0.18224214693892818 0.6590618150440438 -0.2817009870747002 7.485954778452029 5.916585627952784 0.3909868686005339 0.052054259046842334 0.025114605578136884 0.14711640502825668 2.8481656185634567 1.4186527021698625 -0.4950952266116599 -0.3533222706701746 -0.32115453427864754 0.13055762524176567 10.635323415119997 0.1684211524317016 -0.28178593755250225 0.5565612728913683 -0.01760522613231777 -0.6234367222720208 2.247303205106857 -0.9256792097908436 -0.11350309645149342 -0.3735570262514547 0.23471576892863874 0.30556505438491655 -57.23421560299841 31.81689262575198 -25.753334133465213 23.74040566807617 -28.137261399096424 -62.653639445228784 4.675377184995034 -13.10509420578722 3.4487029577042465 0.28015877838487896 0.0032972671517170443 -0.116953489240687 0.02195350865289036 -0.5688568406970077 0.1893752656708016 -0.1776670674533568 0.06580883930253979 0.019928784450804704 -8.354024864410105 5.80934568156806 -0.13201725801173858 0.22979552476614368 0.012556208891584182 -0.30159409979534746 -2.767807802648022 0.5475500122203 -0.4427587953747314 0.2779321367154548 -0.3887655630163988 0.20912726561597933 -10.264630265843188 1.273085576144435 -0.07388877299778637 -0.022779588016491666 0.07120597607742586 0.27883030659131147 -2.1235975936239364 -0.45442347781664383 0.2086401877507928 -0.3615869062875958 0.22780655233549482 -0.39866389450592243 -32.459842237987374 -35.760415041180146 -28.241619859425047 -5.881437474483898 62.824776665072626 6.25264032662752 -4.873886814824522 -10.391098048515143 -10.965682589800588 0.1843998864070572 0.26829159150624626 0.3456221928763373 37.31646190770328 -33.85415364005919 30.815149761321226 5.008397572130991 62.79837115374136 -6.879650838661044 4.667414891970091 -9.850290500222703 14.161190861859286
